<svg xmlns="http://www.w3.org/2000/svg" width="100" height="100" viewBox="0 0 100 100"><defs>
 <linearGradient id="bg" x1="0" y1="0" x2="0" y2="1"><stop offset="0" stop-color="#11365c"/><stop offset="1" stop-color="#071a30"/></linearGradient>
 <linearGradient id="acc" x1="0" y1="0" x2="0" y2="1"><stop offset="0" stop-color="#ffc24a"/><stop offset="1" stop-color="#f7a91e"/></linearGradient>
</defs>
 <rect width="100" height="100" rx="22" fill="url(#bg)"/>
 <g transform="rotate(-6 50 50)">
  <path d="M 19.6,55.8 L 28.6,55.8 L 32.8,35.8 L 41.8,35.8 L 46.0,55.8 L 55.0,55.8 L 59.2,35.8 L 68.2,35.8 L 72.4,55.8 L 81.4,55.8 L 83.6,35.8 L 83.6,35.8" fill="none" stroke="#0b2540" stroke-width="8.5" stroke-linejoin="miter" opacity="0.5"/>
  <path d="M 18.0,60.0 L 27.0,60.0 L 31.2,40.0 L 40.2,40.0 L 44.4,60.0 L 53.4,60.0 L 57.6,40.0 L 66.6,40.0 L 70.8,60.0 L 79.8,60.0 L 82.0,40.0 L 82.0,40.0" fill="none" stroke="url(#acc)" stroke-width="8.5" stroke-linejoin="miter"/>
 </g>
</svg>